<svg xmlns="http://www.w3.org/2000/svg" width="34" height="22" viewBox="0 0 34 22">
  <g id="_226-united-states" data-name="226-united-states" transform="translate(0 -88.276)">
    <path id="Pfad_6340" data-name="Pfad 6340" d="M33.414,110.276H.586A.583.583,0,0,1,0,109.7V88.855a.583.583,0,0,1,.586-.579H33.414a.583.583,0,0,1,.586.579V109.7A.583.583,0,0,1,33.414,110.276Z" transform="translate(0 0)" fill="#f5f5f5"/>
    <g id="Gruppe_1392" data-name="Gruppe 1392" transform="translate(0 88.276)">
      <path id="Pfad_6341" data-name="Pfad 6341" d="M34,89.943H0v-1.1a.578.578,0,0,1,.586-.57H33.414a.578.578,0,0,1,.586.57v1.1Z" transform="translate(0 -88.276)" fill="#ff4b55"/>
      <rect id="Rechteck_3209" data-name="Rechteck 3209" width="34" height="1.667" transform="translate(0 6.778)" fill="#ff4b55"/>
      <rect id="Rechteck_3210" data-name="Rechteck 3210" width="34" height="1.667" transform="translate(0 3.389)" fill="#ff4b55"/>
      <path id="Pfad_6342" data-name="Pfad 6342" d="M34,244.765H.586a.578.578,0,0,1-.586-.57v-1.1H34Z" transform="translate(0 -232.931)" fill="#ff4b55"/>
      <rect id="Rechteck_3211" data-name="Rechteck 3211" width="34" height="1.667" transform="translate(0 16.945)" fill="#ff4b55"/>
      <path id="Pfad_6343" data-name="Pfad 6343" d="M33.414,399.588H.586a.578.578,0,0,1-.586-.57v-1.1H34v1.1A.578.578,0,0,1,33.414,399.588Z" transform="translate(0 -377.588)" fill="#ff4b55"/>
      <rect id="Rechteck_3212" data-name="Rechteck 3212" width="34" height="1.667" transform="translate(0 13.556)" fill="#ff4b55"/>
    </g>
    <path id="Pfad_6344" data-name="Pfad 6344" d="M14.825,88.277H.57a.57.57,0,0,0-.57.57V99.374a.57.57,0,0,0,.57.57H14.826a.57.57,0,0,0,.57-.57V88.847A.57.57,0,0,0,14.825,88.277Z" transform="translate(0 -0.001)" fill="#41479b"/>
    <g id="Gruppe_1393" data-name="Gruppe 1393" transform="translate(0.921 89.548)">
      <path id="Pfad_6345" data-name="Pfad 6345" d="M14.933,108.006l.126.379.4,0a.054.054,0,0,1,.032.1l-.321.237.12.38a.054.054,0,0,1-.083.06l-.325-.232-.325.232a.054.054,0,0,1-.083-.06l.12-.38-.321-.237a.054.054,0,0,1,.032-.1l.4,0,.126-.379A.054.054,0,0,1,14.933,108.006Z" transform="translate(-14.253 -107.969)" fill="#f5f5f5"/>
      <path id="Pfad_6346" data-name="Pfad 6346" d="M14.933,138.66l.126.379.4,0a.054.054,0,0,1,.032.1l-.321.237.12.38a.054.054,0,0,1-.083.06l-.325-.232-.325.232a.054.054,0,0,1-.083-.06l.12-.38-.321-.237a.054.054,0,0,1,.032-.1l.4,0,.126-.379A.054.054,0,0,1,14.933,138.66Z" transform="translate(-14.253 -136.643)" fill="#f5f5f5"/>
      <path id="Pfad_6347" data-name="Pfad 6347" d="M14.933,169.314l.126.379.4,0a.054.054,0,0,1,.032.1l-.321.237.12.38a.054.054,0,0,1-.083.06l-.325-.232-.325.232a.054.054,0,0,1-.083-.06l.12-.38-.321-.237a.054.054,0,0,1,.032-.1l.4,0,.126-.379A.054.054,0,0,1,14.933,169.314Z" transform="translate(-14.253 -165.317)" fill="#f5f5f5"/>
      <path id="Pfad_6348" data-name="Pfad 6348" d="M14.933,199.969l.126.379.4,0a.054.054,0,0,1,.032.1l-.321.237.12.38a.054.054,0,0,1-.083.06l-.325-.232-.325.232a.054.054,0,0,1-.083-.06l.12-.38-.321-.237a.054.054,0,0,1,.032-.1l.4,0,.126-.379A.054.054,0,0,1,14.933,199.969Z" transform="translate(-14.253 -193.992)" fill="#f5f5f5"/>
      <path id="Pfad_6349" data-name="Pfad 6349" d="M14.933,230.622l.126.379.4,0a.054.054,0,0,1,.032.1l-.321.237.12.38a.054.054,0,0,1-.083.06l-.325-.232-.325.232a.054.054,0,0,1-.083-.06l.12-.38-.321-.237a.054.054,0,0,1,.032-.1l.4,0,.126-.379A.054.054,0,0,1,14.933,230.622Z" transform="translate(-14.253 -222.665)" fill="#f5f5f5"/>
      <path id="Pfad_6350" data-name="Pfad 6350" d="M38.726,123.035l.126.379.4,0a.054.054,0,0,1,.032.1l-.321.237.12.38a.054.054,0,0,1-.083.06l-.325-.232-.325.232a.054.054,0,0,1-.083-.06l.12-.38-.321-.237a.054.054,0,0,1,.032-.1l.4,0,.126-.379A.054.054,0,0,1,38.726,123.035Z" transform="translate(-36.509 -122.028)" fill="#f5f5f5"/>
      <path id="Pfad_6351" data-name="Pfad 6351" d="M38.726,153.69l.126.379.4,0a.054.054,0,0,1,.032.1l-.321.237.12.38a.054.054,0,0,1-.083.06l-.325-.232-.325.232a.054.054,0,0,1-.083-.06l.12-.38-.321-.237a.054.054,0,0,1,.032-.1l.4,0,.126-.379A.054.054,0,0,1,38.726,153.69Z" transform="translate(-36.509 -150.702)" fill="#f5f5f5"/>
      <path id="Pfad_6352" data-name="Pfad 6352" d="M38.726,184.344l.126.379.4,0a.054.054,0,0,1,.032.1l-.321.237.12.38a.054.054,0,0,1-.083.06l-.325-.232-.325.232a.054.054,0,0,1-.083-.06l.12-.38-.321-.237a.054.054,0,0,1,.032-.1l.4,0,.126-.379A.054.054,0,0,1,38.726,184.344Z" transform="translate(-36.509 -179.376)" fill="#f5f5f5"/>
      <path id="Pfad_6353" data-name="Pfad 6353" d="M38.726,215l.126.379.4,0a.054.054,0,0,1,.032.1l-.321.237.12.38a.054.054,0,0,1-.083.06l-.325-.232-.325.232a.054.054,0,0,1-.083-.06l.12-.38-.321-.237a.054.054,0,0,1,.032-.1l.4,0,.126-.379A.054.054,0,0,1,38.726,215Z" transform="translate(-36.509 -208.05)" fill="#f5f5f5"/>
      <path id="Pfad_6354" data-name="Pfad 6354" d="M62.519,108.006l.126.379.4,0a.054.054,0,0,1,.032.1l-.321.237.12.38a.054.054,0,0,1-.083.06l-.325-.232-.325.232a.054.054,0,0,1-.083-.06l.12-.38-.321-.237a.054.054,0,0,1,.032-.1l.4,0,.126-.379A.054.054,0,0,1,62.519,108.006Z" transform="translate(-58.765 -107.969)" fill="#f5f5f5"/>
      <path id="Pfad_6355" data-name="Pfad 6355" d="M62.519,138.66l.126.379.4,0a.054.054,0,0,1,.032.1l-.321.237.12.38a.054.054,0,0,1-.083.06l-.325-.232-.325.232a.054.054,0,0,1-.083-.06l.12-.38-.321-.237a.054.054,0,0,1,.032-.1l.4,0,.126-.379A.054.054,0,0,1,62.519,138.66Z" transform="translate(-58.765 -136.643)" fill="#f5f5f5"/>
      <path id="Pfad_6356" data-name="Pfad 6356" d="M62.519,169.314l.126.379.4,0a.054.054,0,0,1,.032.1l-.321.237.12.38a.054.054,0,0,1-.083.06l-.325-.232-.325.232a.054.054,0,0,1-.083-.06l.12-.38-.321-.237a.054.054,0,0,1,.032-.1l.4,0,.126-.379A.054.054,0,0,1,62.519,169.314Z" transform="translate(-58.765 -165.317)" fill="#f5f5f5"/>
      <path id="Pfad_6357" data-name="Pfad 6357" d="M62.519,199.969l.126.379.4,0a.054.054,0,0,1,.032.1l-.321.237.12.38a.054.054,0,0,1-.083.06l-.325-.232-.325.232a.054.054,0,0,1-.083-.06l.12-.38-.321-.237a.054.054,0,0,1,.032-.1l.4,0,.126-.379A.054.054,0,0,1,62.519,199.969Z" transform="translate(-58.765 -193.992)" fill="#f5f5f5"/>
      <path id="Pfad_6358" data-name="Pfad 6358" d="M62.519,230.622l.126.379.4,0a.054.054,0,0,1,.032.1l-.321.237.12.38a.054.054,0,0,1-.083.06l-.325-.232-.325.232a.054.054,0,0,1-.083-.06l.12-.38-.321-.237a.054.054,0,0,1,.032-.1l.4,0,.126-.379A.054.054,0,0,1,62.519,230.622Z" transform="translate(-58.765 -222.665)" fill="#f5f5f5"/>
      <path id="Pfad_6359" data-name="Pfad 6359" d="M86.313,123.035l.126.379.4,0a.054.054,0,0,1,.032.1l-.321.237.12.38a.054.054,0,0,1-.083.06l-.325-.232-.325.232a.054.054,0,0,1-.083-.06l.12-.38-.321-.237a.054.054,0,0,1,.032-.1l.4,0,.126-.379A.054.054,0,0,1,86.313,123.035Z" transform="translate(-81.022 -122.028)" fill="#f5f5f5"/>
      <path id="Pfad_6360" data-name="Pfad 6360" d="M86.313,153.69l.126.379.4,0a.054.054,0,0,1,.032.1l-.321.237.12.38a.054.054,0,0,1-.083.06l-.325-.232-.325.232a.054.054,0,0,1-.083-.06l.12-.38-.321-.237a.054.054,0,0,1,.032-.1l.4,0,.126-.379A.054.054,0,0,1,86.313,153.69Z" transform="translate(-81.022 -150.702)" fill="#f5f5f5"/>
      <path id="Pfad_6361" data-name="Pfad 6361" d="M86.313,184.344l.126.379.4,0a.054.054,0,0,1,.032.1l-.321.237.12.38a.054.054,0,0,1-.083.06l-.325-.232-.325.232a.054.054,0,0,1-.083-.06l.12-.38-.321-.237a.054.054,0,0,1,.032-.1l.4,0,.126-.379A.054.054,0,0,1,86.313,184.344Z" transform="translate(-81.022 -179.376)" fill="#f5f5f5"/>
      <path id="Pfad_6362" data-name="Pfad 6362" d="M86.313,215l.126.379.4,0a.054.054,0,0,1,.032.1l-.321.237.12.38a.054.054,0,0,1-.083.06l-.325-.232-.325.232a.054.054,0,0,1-.083-.06l.12-.38-.321-.237a.054.054,0,0,1,.032-.1l.4,0,.126-.379A.054.054,0,0,1,86.313,215Z" transform="translate(-81.022 -208.05)" fill="#f5f5f5"/>
      <path id="Pfad_6363" data-name="Pfad 6363" d="M110.105,108.006l.126.379.4,0a.054.054,0,0,1,.032.1l-.321.237.12.38a.054.054,0,0,1-.083.06l-.325-.232-.325.232a.054.054,0,0,1-.083-.06l.12-.38-.321-.237a.054.054,0,0,1,.032-.1l.4,0,.126-.379A.054.054,0,0,1,110.105,108.006Z" transform="translate(-103.277 -107.969)" fill="#f5f5f5"/>
      <path id="Pfad_6364" data-name="Pfad 6364" d="M110.105,138.66l.126.379.4,0a.054.054,0,0,1,.032.1l-.321.237.12.38a.054.054,0,0,1-.083.06l-.325-.232-.325.232a.054.054,0,0,1-.083-.06l.12-.38-.321-.237a.054.054,0,0,1,.032-.1l.4,0,.126-.379A.054.054,0,0,1,110.105,138.66Z" transform="translate(-103.277 -136.643)" fill="#f5f5f5"/>
      <path id="Pfad_6365" data-name="Pfad 6365" d="M110.105,169.314l.126.379.4,0a.054.054,0,0,1,.032.1l-.321.237.12.38a.054.054,0,0,1-.083.06l-.325-.232-.325.232a.054.054,0,0,1-.083-.06l.12-.38-.321-.237a.054.054,0,0,1,.032-.1l.4,0,.126-.379A.054.054,0,0,1,110.105,169.314Z" transform="translate(-103.277 -165.317)" fill="#f5f5f5"/>
      <path id="Pfad_6366" data-name="Pfad 6366" d="M110.105,199.969l.126.379.4,0a.054.054,0,0,1,.032.1l-.321.237.12.38a.054.054,0,0,1-.083.06l-.325-.232-.325.232a.054.054,0,0,1-.083-.06l.12-.38-.321-.237a.054.054,0,0,1,.032-.1l.4,0,.126-.379A.054.054,0,0,1,110.105,199.969Z" transform="translate(-103.277 -193.992)" fill="#f5f5f5"/>
      <path id="Pfad_6367" data-name="Pfad 6367" d="M110.105,230.622l.126.379.4,0a.054.054,0,0,1,.032.1l-.321.237.12.38a.054.054,0,0,1-.083.06l-.325-.232-.325.232a.054.054,0,0,1-.083-.06l.12-.38-.321-.237a.054.054,0,0,1,.032-.1l.4,0,.126-.379A.054.054,0,0,1,110.105,230.622Z" transform="translate(-103.277 -222.665)" fill="#f5f5f5"/>
      <path id="Pfad_6368" data-name="Pfad 6368" d="M133.9,123.035l.126.379.4,0a.054.054,0,0,1,.032.1l-.321.237.12.38a.054.054,0,0,1-.083.06l-.325-.232-.325.232a.054.054,0,0,1-.083-.06l.12-.38-.321-.237a.054.054,0,0,1,.032-.1l.4,0,.126-.379A.054.054,0,0,1,133.9,123.035Z" transform="translate(-125.534 -122.028)" fill="#f5f5f5"/>
      <path id="Pfad_6369" data-name="Pfad 6369" d="M133.9,153.69l.126.379.4,0a.054.054,0,0,1,.032.1l-.321.237.12.38a.054.054,0,0,1-.083.06l-.325-.232-.325.232a.054.054,0,0,1-.083-.06l.12-.38-.321-.237a.054.054,0,0,1,.032-.1l.4,0,.126-.379A.054.054,0,0,1,133.9,153.69Z" transform="translate(-125.534 -150.702)" fill="#f5f5f5"/>
      <path id="Pfad_6370" data-name="Pfad 6370" d="M133.9,184.344l.126.379.4,0a.054.054,0,0,1,.032.1l-.321.237.12.38a.054.054,0,0,1-.083.06l-.325-.232-.325.232a.054.054,0,0,1-.083-.06l.12-.38-.321-.237a.054.054,0,0,1,.032-.1l.4,0,.126-.379A.054.054,0,0,1,133.9,184.344Z" transform="translate(-125.534 -179.376)" fill="#f5f5f5"/>
      <path id="Pfad_6371" data-name="Pfad 6371" d="M133.9,215l.126.379.4,0a.054.054,0,0,1,.032.1l-.321.237.12.38a.054.054,0,0,1-.083.06l-.325-.232-.325.232a.054.054,0,0,1-.083-.06l.12-.38-.321-.237a.054.054,0,0,1,.032-.1l.4,0L133.8,215A.054.054,0,0,1,133.9,215Z" transform="translate(-125.534 -208.05)" fill="#f5f5f5"/>
      <path id="Pfad_6372" data-name="Pfad 6372" d="M157.693,108.006l.126.379.4,0a.054.054,0,0,1,.032.1l-.321.237.12.38a.054.054,0,0,1-.083.06l-.325-.232-.325.232a.054.054,0,0,1-.083-.06l.12-.38-.321-.237a.054.054,0,0,1,.032-.1l.4,0,.126-.379A.054.054,0,0,1,157.693,108.006Z" transform="translate(-147.791 -107.969)" fill="#f5f5f5"/>
      <path id="Pfad_6373" data-name="Pfad 6373" d="M157.693,138.66l.126.379.4,0a.054.054,0,0,1,.032.1l-.321.237.12.38a.054.054,0,0,1-.083.06l-.325-.232-.325.232a.054.054,0,0,1-.083-.06l.12-.38-.321-.237a.054.054,0,0,1,.032-.1l.4,0,.126-.379A.054.054,0,0,1,157.693,138.66Z" transform="translate(-147.791 -136.643)" fill="#f5f5f5"/>
      <path id="Pfad_6374" data-name="Pfad 6374" d="M157.693,169.314l.126.379.4,0a.054.054,0,0,1,.032.1l-.321.237.12.38a.054.054,0,0,1-.083.06l-.325-.232-.325.232a.054.054,0,0,1-.083-.06l.12-.38-.321-.237a.054.054,0,0,1,.032-.1l.4,0,.126-.379A.054.054,0,0,1,157.693,169.314Z" transform="translate(-147.791 -165.317)" fill="#f5f5f5"/>
      <path id="Pfad_6375" data-name="Pfad 6375" d="M157.693,199.969l.126.379.4,0a.054.054,0,0,1,.032.1l-.321.237.12.38a.054.054,0,0,1-.083.06l-.325-.232-.325.232a.054.054,0,0,1-.083-.06l.12-.38-.321-.237a.054.054,0,0,1,.032-.1l.4,0,.126-.379A.054.054,0,0,1,157.693,199.969Z" transform="translate(-147.791 -193.992)" fill="#f5f5f5"/>
      <path id="Pfad_6376" data-name="Pfad 6376" d="M157.693,230.622l.126.379.4,0a.054.054,0,0,1,.032.1l-.321.237.12.38a.054.054,0,0,1-.083.06l-.325-.232-.325.232a.054.054,0,0,1-.083-.06l.12-.38-.321-.237a.054.054,0,0,1,.032-.1l.4,0,.126-.379A.054.054,0,0,1,157.693,230.622Z" transform="translate(-147.791 -222.665)" fill="#f5f5f5"/>
      <path id="Pfad_6377" data-name="Pfad 6377" d="M181.486,123.035l.126.379.4,0a.054.054,0,0,1,.032.1l-.321.237.12.38a.054.054,0,0,1-.083.06l-.325-.232-.325.232a.054.054,0,0,1-.083-.06l.12-.38-.321-.237a.054.054,0,0,1,.032-.1l.4,0,.126-.379A.054.054,0,0,1,181.486,123.035Z" transform="translate(-170.047 -122.028)" fill="#f5f5f5"/>
      <path id="Pfad_6378" data-name="Pfad 6378" d="M181.486,153.69l.126.379.4,0a.054.054,0,0,1,.032.1l-.321.237.12.38a.054.054,0,0,1-.083.06l-.325-.232-.325.232a.054.054,0,0,1-.083-.06l.12-.38-.321-.237a.054.054,0,0,1,.032-.1l.4,0,.126-.379A.054.054,0,0,1,181.486,153.69Z" transform="translate(-170.047 -150.702)" fill="#f5f5f5"/>
      <path id="Pfad_6379" data-name="Pfad 6379" d="M181.486,184.344l.126.379.4,0a.054.054,0,0,1,.032.1l-.321.237.12.38a.054.054,0,0,1-.083.06l-.325-.232-.325.232a.054.054,0,0,1-.083-.06l.12-.38-.321-.237a.054.054,0,0,1,.032-.1l.4,0,.126-.379A.054.054,0,0,1,181.486,184.344Z" transform="translate(-170.047 -179.376)" fill="#f5f5f5"/>
      <path id="Pfad_6380" data-name="Pfad 6380" d="M181.486,215l.126.379.4,0a.054.054,0,0,1,.032.1l-.321.237.12.38a.054.054,0,0,1-.083.06l-.325-.232-.325.232a.054.054,0,0,1-.083-.06l.12-.38-.321-.237a.054.054,0,0,1,.032-.1l.4,0,.126-.379A.054.054,0,0,1,181.486,215Z" transform="translate(-170.047 -208.05)" fill="#f5f5f5"/>
      <path id="Pfad_6381" data-name="Pfad 6381" d="M205.28,108.006l.126.379.4,0a.054.054,0,0,1,.032.1l-.321.237.12.38a.054.054,0,0,1-.083.06l-.325-.232-.325.232a.054.054,0,0,1-.083-.06l.12-.38-.321-.237a.054.054,0,0,1,.031-.1l.4,0,.126-.379A.054.054,0,0,1,205.28,108.006Z" transform="translate(-192.304 -107.969)" fill="#f5f5f5"/>
      <path id="Pfad_6382" data-name="Pfad 6382" d="M205.28,138.66l.126.379.4,0a.054.054,0,0,1,.032.1l-.321.237.12.38a.054.054,0,0,1-.083.06l-.325-.232-.325.232a.054.054,0,0,1-.083-.06l.12-.38-.321-.237a.054.054,0,0,1,.031-.1l.4,0,.126-.379A.054.054,0,0,1,205.28,138.66Z" transform="translate(-192.304 -136.643)" fill="#f5f5f5"/>
      <path id="Pfad_6383" data-name="Pfad 6383" d="M205.28,169.314l.126.379.4,0a.054.054,0,0,1,.032.1l-.321.237.12.38a.054.054,0,0,1-.083.06l-.325-.232-.325.232a.054.054,0,0,1-.083-.06l.12-.38-.321-.237a.054.054,0,0,1,.031-.1l.4,0,.126-.379A.054.054,0,0,1,205.28,169.314Z" transform="translate(-192.304 -165.317)" fill="#f5f5f5"/>
      <path id="Pfad_6384" data-name="Pfad 6384" d="M205.28,199.969l.126.379.4,0a.054.054,0,0,1,.032.1l-.321.237.12.38a.054.054,0,0,1-.083.06l-.325-.232-.325.232a.054.054,0,0,1-.083-.06l.12-.38-.321-.237a.054.054,0,0,1,.031-.1l.4,0,.126-.379A.054.054,0,0,1,205.28,199.969Z" transform="translate(-192.304 -193.992)" fill="#f5f5f5"/>
      <path id="Pfad_6385" data-name="Pfad 6385" d="M205.28,230.622l.126.379.4,0a.054.054,0,0,1,.032.1l-.321.237.12.38a.054.054,0,0,1-.083.06l-.325-.232-.325.232a.054.054,0,0,1-.083-.06l.12-.38-.321-.237a.054.054,0,0,1,.031-.1l.4,0,.126-.379A.054.054,0,0,1,205.28,230.622Z" transform="translate(-192.304 -222.665)" fill="#f5f5f5"/>
    </g>
  </g>
</svg>
